<?xml version="1.0" encoding="utf-8"?>
<!-- Svg Vector Icons : http://www.onlinewebfonts.com/icon -->
<!DOCTYPE svg PUBLIC "-//W3C//DTD SVG 1.1//EN" "http://www.w3.org/Graphics/SVG/1.1/DTD/svg11.dtd">
<svg version="1.1" xmlns="http://www.w3.org/2000/svg" xmlns:xlink="http://www.w3.org/1999/xlink" x="0px" y="0px" viewBox="0 0 1000 1000" enable-background="new 0 0 1000 1000" xml:space="preserve">
<metadata> Svg Vector Icons : http://www.onlinewebfonts.com/icon </metadata>
<g><g transform="translate(0.000000,511.000000) scale(0.100000,-0.100000)"><path d="M4467.3,2518.9c-1472.9-127.5-2813-724.3-3765.1-1679.1C430.9,568.5,100,164.4,100,104.7C102.7,45,398.4-313,691.3-608.7c897.9-914.2,2129.4-1491.9,3559-1673.7c330.9-43.4,1188.1-43.4,1519.1,0c1185.4,149.2,2289.5,599.5,3119.5,1269.5c263.1,211.6,610.3,561.5,819.2,819.2c249.6,312,246.8,287.5,43.4,550.7c-897.9,1147.4-2297.6,1915.1-3873.6,2124C5498.1,2532.5,4819.9,2551.5,4467.3,2518.9z M5552.4,1848.9c368.9-130.2,670-336.4,876.2-596.8c721.6-919.6,431.3-2248.8-602.2-2769.6c-887-447.6-1996.5-86.8-2435.9,797.5c-160,317.4-184.5,428.6-184.5,827.3c0,398.8,24.4,512.7,181.7,824.6c244.1,488.3,751.4,870.8,1296.6,976.5C4849.8,1938.4,5405.9,1903.1,5552.4,1848.9z"/><path d="M4838.9,1083.9c-206.2-35.3-406.9-149.2-558.8-312c-176.3-195.3-252.3-393.3-252.3-664.6c0-295.7,78.7-482.8,287.5-694.4c208.9-208.9,396-287.6,694.4-287.6c298.4,0,485.6,78.7,694.4,287.6c208.9,208.9,287.5,396.1,287.5,694.4c0,298.4-78.7,485.6-287.5,694.4C5465.5,1040.5,5164.5,1138.2,4838.9,1083.9z"/></g></g>
</svg>